<svg xmlns="http://www.w3.org/2000/svg" width="203" height="148" viewBox="0 0 203 148">
    <defs>
        <linearGradient id="g6dd78l5ba" x1="49.995%" x2="49.995%" y1="100.003%" y2="0%">
            <stop offset="0%" stop-color="gray" stop-opacity=".25"/>
            <stop offset="54%" stop-color="gray" stop-opacity=".12"/>
            <stop offset="100%" stop-color="gray" stop-opacity=".1"/>
        </linearGradient>
        <linearGradient id="dol9x7csbb" x1="49.985%" x2="49.985%" y1="100%" y2=".005%">
            <stop offset="0%" stop-color="gray" stop-opacity=".25"/>
            <stop offset="54%" stop-color="gray" stop-opacity=".12"/>
            <stop offset="100%" stop-color="gray" stop-opacity=".1"/>
        </linearGradient>
    </defs>
    <g fill="none" fill-rule="evenodd">
        <ellipse cx="72.889" cy="144.882" fill="#F46036" fill-rule="nonzero" opacity=".1" rx="17.098" ry="2.746"/>
        <ellipse cx="165.834" cy="144.959" fill="#F46036" fill-rule="nonzero" opacity=".1" rx="21.336" ry="2.746"/>
        <path fill="#F46036" fill-rule="nonzero" d="M10.851 69.7h17.81v24.273H12.155c-.044.25-.086.5-.131.751H28.66V114.3c-.03-.009-.057-.02-.085-.03-.47-.186-.937-.382-1.403-.593l-.299-.135c-.468-.221-.936-.455-1.404-.702-.163-.086-.326-.175-.487-.266-2.598-1.456-4.958-3.3-6.998-5.468-.06-.058-.116-.12-.176-.176-.284-.309-.563-.621-.833-.94l-.299-.351c-.32-.392-.628-.793-.928-1.2-.044-.06-.086-.12-.132-.176-1.22-1.692-2.233-3.524-3.018-5.457-.024-.058-.045-.121-.068-.176-.241-.62-.455-1.246-.64-1.877-.081-.265-.159-.527-.225-.802-.025-.081-.046-.16-.065-.239-.997-3.89-1.115-7.932-1.115-11.945v-1.404c0-1.623.02-3.256.048-4.888 0-.423.017-.844.026-1.269.025-1.077.06-2.155.105-3.232.011-.3.025-.599.04-.897 0-.172.01-.344.027-.516.042-.625.077-1.244.12-1.862zM28.66 42.672h-9.768c1.588-2.485 3.323-4.873 5.196-7.152 1.45-1.783 2.983-3.52 4.573-5.194v12.346zM28.66 43.423v25.525H10.909c0-.073.012-.149.017-.223.016-.201.032-.403.05-.603.019-.235.04-.472.062-.702.023-.23.048-.51.074-.765.026-.255.051-.513.08-.767.03-.254.057-.509.089-.762.031-.252.06-.508.093-.761.026-.21.054-.42.082-.63.04-.297.083-.595.128-.89 0-.044.012-.09.02-.131.32-2.158.756-4.298 1.307-6.409.576-2.214 1.312-4.384 2.202-6.492.946-2.206 2.053-4.338 3.313-6.38l10.236-.01zM32.912 69.698v24.275H70.95V69.698H32.912zm0 25.024v20.847c.218.046.434.09.648.126.291.056.58.107.877.151.056.009.114.018.176.023.116.02.235.035.35.05.294.041.585.075.878.1.139.015.28.027.42.038l.338.026c.184.014.367.025.548.03.112 0 .224.01.34.014H38.738c.151 0 .302 0 .451-.014h.01c.104 0 .21 0 .315-.014.029.002.058.002.088 0 .087 0 .175 0 .26-.012h.06l.589-.046c.193-.018.387-.04.584-.061l.4-.048c1.628-.228 3.237-.57 4.817-1.025 3.548-.99 7.019-2.374 10.565-3.388 4.585-1.307 9.651-1.95 14.082-.351V94.722H32.912zm38.038-52.05V10.355c-4.164-.045-8.317.442-12.358 1.45-9.632 2.42-18.274 7.668-25.68 14.37v16.496h1.91v.749h-1.91v25.528H70.95V43.422H42.66v-.75h28.29zm48.858-10.916c-2.383-.084-4.752-.839-6.894-2.004-4.097-2.228-7.37-5.67-11.027-8.574-7.598-6.048-17.021-9.698-26.688-10.604v32.098H129.5l.135-.142-9.827-10.774zm4.947-.877L130 36.634V29.37c-1.756.217-3.295.735-5.238 1.502l-.007.007zM130 120.745V94.722h-11.176c-.03-.11-.06-.223-.095-.335.034.112.062.225.093.335H75.206v18.82c.414.307.823.63 1.228.958.437.351.869.721 1.302 1.085l.437.361c.209.176.42.351.632.516.42.342.846.679 1.276 1.01.212.176.43.334.645.5 3.427 2.619 7.041 4.983 10.815 7.073.846.468 1.7.924 2.56 1.37.574.293 1.151.584 1.73.867.87.425 1.748.834 2.632 1.228 8.154 3.66 16.776 6.172 25.62 7.463 1.964.29 3.936.519 5.915.685v-15.914h.176l-.174.001zM75.206 43.422v25.526h54.801V43.422H75.206zm0 26.276v24.275h54.801V69.698H75.206zm59.055-40.36v8.103l6.694-7.345c-2.218-.358-4.45-.614-6.694-.767v.009zm0 40.368v24.267h53.3V69.698l-53.3.008zm53.106 52.966l.188-27.95H134.26v42.215c3.433.144 6.871.103 10.3-.123h.06c1.638-.103 3.268-.253 4.89-.45h.037c8.657-1.007 17.12-3.265 25.128-6.704m23.163-55.965c-.2-.472-.409-.94-.62-1.404-.397-.877-.817-1.73-1.248-2.583h-4.16v24.265h10.515c-.005-6.872-1.744-13.89-4.481-20.287l-.006.009zm-6.027 21.036v24.04c2.962-2.839 5.464-6.087 7.266-9.8 2.167-4.471 3.159-9.313 3.24-14.243l-10.506.003zm0-32.098v6.317h3.769c-1.14-2.175-2.397-4.286-3.764-6.326l-.005.009zM155.664 34.1c-.278-.105-.555-.212-.834-.315-2.943-1.087-5.95-1.99-9.004-2.706L135.582 42.32l-.197.21.132.143h36.46c-5.077-3.495-10.552-6.376-16.308-8.582l-.005.008zm17.382 9.33h-38.038l-.747.685v24.833h53.308V56.92c-4.229-5.114-9.11-9.652-14.517-13.497l-.006.008z" opacity=".1"/>
        <path fill="#F46036" fill-rule="nonzero" d="M28.66 56.298v12.65H10.909c0-.073.012-.149.017-.223.016-.201.032-.403.05-.603.019-.235.04-.472.062-.702.023-.23.048-.51.074-.765.026-.255.051-.513.08-.767.03-.254.057-.509.089-.762.031-.252.06-.508.093-.761.026-.21.054-.42.082-.63.04-.297.083-.595.128-.89 0-.044.012-.09.02-.131.32-2.158.756-4.298 1.307-6.409l15.75-.007zM10.851 69.7h17.81v24.273H12.155c-.044.25-.086.5-.131.751H28.66V114.3c-.03-.009-.057-.02-.085-.03-.47-.186-.937-.382-1.403-.593l-.299-.135c-.468-.221-.936-.455-1.404-.702-.163-.086-.326-.175-.487-.266-2.598-1.456-4.958-3.3-6.998-5.468-.06-.058-.116-.12-.176-.176-.284-.309-.563-.621-.833-.94l-.299-.351c-.32-.392-.628-.793-.928-1.2-.044-.06-.086-.12-.132-.176-1.22-1.692-2.233-3.524-3.018-5.457-.024-.058-.045-.121-.068-.176-.241-.62-.455-1.246-.64-1.877-.081-.265-.159-.527-.225-.802-.025-.081-.046-.16-.065-.239-.997-3.89-1.115-7.932-1.115-11.945v-1.404c0-1.623.02-3.256.048-4.888 0-.423.017-.844.026-1.269.025-1.077.06-2.155.105-3.232.011-.3.025-.599.04-.897 0-.172.01-.344.027-.516.042-.625.077-1.244.12-1.862zM46.303 47.077L46.303 68.948 32.912 68.948 32.912 47.077 34.822 47.077 34.822 39.672 42.658 39.672 42.658 47.077zM32.914 69.698H46.303V93.972H32.914zM32.912 94.724h13.391v20.18c-1.58.454-3.19.796-4.817 1.023l-.4.049c-.196.023-.391.042-.584.061-.193.02-.393.034-.588.046h-.062c-.084 0-.175.01-.257.012h-.09c-.105 0-.21.01-.316.014-.149.01-.298.01-.45.013h-1.243l-.339-.013c-.175 0-.365-.019-.547-.031l-.337-.025-.42-.038c-.294-.027-.587-.06-.877-.1l-.351-.05-.175-.024c-.293-.046-.583-.095-.878-.151-.216-.037-.43-.083-.647-.126l-.013-20.84zM118.966 44.494H130.007V68.947H118.966zM130.009 69.698L130.009 93.973 75.206 93.973 75.206 83.502 104.396 83.502 104.396 89.679 118.966 89.679 118.966 69.698zM130.183 120.75h-.176v15.925c-1.977-.167-3.948-.395-5.913-.682-8.849-1.296-17.474-3.813-25.63-7.48-2.355-1.06-4.662-2.216-6.921-3.47-3.774-2.09-7.389-4.455-10.817-7.074-.86-.66-1.71-1.334-2.55-2.025-.58-.479-1.158-.97-1.742-1.447-.405-.328-.814-.651-1.228-.96V94.724h43.614l-.09-.335c.033.11.064.223.094.335h11.183v26.016c.06.002.118.007.176.01zM158.803 42.672h-7.195v-2.235h3.226v-6.66c.28.102.558.207.835.315v6.345h3.134v2.235zM176.136 68.948h-35.32l.013.009-.016-.009h-6.552V44.496h1.856V62.57h8.484V51.866h7.009v-8.443h7.195v8.45h7.008v10.704h10.323v6.371zM134.26 69.698v24.275h41.876V69.698h-41.875zm53.244 52.85l.058-19.215h-11.426v-8.598h-41.875v42.202c3.433.144 6.871.103 10.3-.123h.06c1.638-.103 3.268-.253 4.89-.45h.037c8.657-1.007 17.12-3.265 25.128-6.704M192.556 94.724h9.769c-.086 4.93-1.076 9.77-3.242 14.242-1.802 3.715-4.306 6.963-7.264 9.8v-15.442h.737v-8.6zM202.33 93.973h-9.774V73.686h5.289c2.737 6.396 4.476 13.415 4.485 20.287z" opacity=".1"/>
        <path fill="#F46036" fill-rule="nonzero" d="M124.094 51.292H130.009V58.959H124.094zM124.094 67.183H130.009V68.94800000000001H124.094zM124.094 69.698H130.009V74.848H124.094zM124.094 83.074H130.009V90.741H124.094zM124.094 98.965H130.009V106.632H124.094zM130.007 120.74c.06 0 .118 0 .176.01h-.176v1.782h-5.913v-7.676h5.913v5.884zM130.007 130.744v5.922c-1.977-.167-3.948-.394-5.913-.682v-5.24h5.913zM75.206 93.41H100.557V94.41H75.206zM75.206 94.722H100.557V96.88H75.206zM75.206 103.956H100.557V107.427H75.206zM100.555 114.502v3.47H80.726c-.86-.657-1.711-1.332-2.551-2.024-.581-.48-1.157-.97-1.743-1.446h24.123zM100.555 125.046v3.468h-2.093c-2.353-1.061-4.66-2.219-6.92-3.473l9.013.005zM144.563 72.051H149.55399999999997V77.042H144.563zM36.508 48.798H41.499V53.789H36.508zM36.508 60.39H41.499V65.381H36.508zM36.508 71.982H41.499V76.973H36.508zM36.508 83.572H41.499V88.563H36.508zM36.508 95.164H41.499V100.155H36.508zM36.508 106.756H41.499V111.747H36.508zM163.614 72.051H168.60500000000002V77.042H163.614zM144.563 84.36H149.55399999999997V89.351H144.563zM163.614 84.36H168.60500000000002V89.351H163.614zM144.563 96.668H149.55399999999997V101.659H144.563zM163.614 96.668H168.60500000000002V101.659H163.614zM144.563 108.978H149.55399999999997V113.969H144.563zM163.614 108.978H168.60500000000002V113.969H163.614zM144.563 121.288H149.55399999999997V126.279H144.563zM163.614 121.288H168.60500000000002V126.279H163.614zM144.563 136.814L144.563 133.596 149.552 133.596 149.552 136.356zM11.581 62.71v2.855h17.08V62.71H11.58zm1.703 2.676H11.89v-2.5h1.404l-.01 2.5zm1.7 0H13.58v-2.5h1.404v2.5zm1.697 0h-1.404v-2.5h1.404v2.5zm1.7 0H16.98v-2.5h1.404l-.002 2.5zm1.699 0h-1.404v-2.5h1.404v2.5zm1.7 0h-1.404v-2.5h1.404v2.5zm1.7 0h-1.403v-2.5h1.404v2.5zm1.7 0h-1.405v-2.5h1.404v2.5zm1.698 0h-1.404v-2.5h1.404v2.5zm1.698 0h-1.403v-2.5h1.403v2.5zM11.581 71.017v2.855h17.08v-2.855H11.58zm1.703 2.674H11.89v-2.493h1.404l-.01 2.493zm1.7 0H13.58v-2.493h1.404v2.493zm1.697 0h-1.404v-2.493h1.404v2.493zm1.7 0H16.98v-2.493h1.404l-.002 2.493zm1.699 0h-1.404v-2.493h1.404v2.493zm1.7 0h-1.404v-2.493h1.404v2.493zm1.7 0h-1.403v-2.493h1.404v2.493zm1.7 0h-1.405v-2.493h1.404v2.493zm1.698 0h-1.404v-2.493h1.404v2.493zm1.698 0h-1.403v-2.493h1.403v2.493zM11.581 79.328v2.86h17.08v-2.86H11.58zm1.703 2.674H11.89v-2.495h1.404l-.01 2.495zm1.7 0H13.58v-2.495h1.404v2.495zm1.697 0h-1.404v-2.495h1.404v2.495zm1.7 0H16.98v-2.495h1.404l-.002 2.495zm1.699 0h-1.404v-2.495h1.404v2.495zm1.7 0h-1.404v-2.495h1.404v2.495zm1.7 0h-1.403v-2.495h1.404v2.495zm1.7 0h-1.405v-2.495h1.404v2.495zm1.698 0h-1.404v-2.495h1.404v2.495zm1.698 0h-1.403v-2.495h1.403v2.495zM11.581 87.638v2.852h17.08v-2.852H11.58zm1.703 2.675H11.89v-2.497h1.404l-.01 2.497zm1.7 0H13.58v-2.497h1.404v2.497zm1.697 0h-1.404v-2.497h1.404v2.497zm1.7 0H16.98v-2.497h1.404l-.002 2.497zm1.699 0h-1.404v-2.497h1.404v2.497zm1.7 0h-1.404v-2.497h1.404v2.497zm1.7 0h-1.403v-2.497h1.404v2.497zm1.7 0h-1.405v-2.497h1.404v2.497zm1.698 0h-1.404v-2.497h1.404v2.497zm1.698 0h-1.403v-2.497h1.403v2.497zM11.655 95.947c.069.269.146.537.227.802v-.623h1.403v2.495h-.75c.022.058.045.121.068.176H28.66v-2.85H11.655zm3.334 2.674h-1.404v-2.495h1.404v2.495zm1.697 0h-1.404v-2.495h1.404v2.495zm1.7 0H16.98v-2.495h1.404l.003 2.495zm1.7 0H18.68v-2.495h1.404v2.495zm1.7 0h-1.404v-2.495h1.403v2.495zm1.7 0h-1.404v-2.495h1.404v2.495zm1.698 0h-1.403v-2.495h1.403v2.495zm1.699 0h-1.404v-2.495h1.404v2.495zm1.699 0h-1.404v-2.495h1.404v2.495zM15.62 104.258c.045.056.087.119.133.175h.928v1.199c.1.119.198.238.3.35v-1.556h1.404v2.504h-.569c.056.058.11.12.176.176h10.674v-2.848H15.62zm4.46 2.672h-1.404v-2.493h1.404v2.493zm1.7 0h-1.404v-2.493h1.404v2.493zm1.7 0h-1.403v-2.493h1.404v2.493zm1.7 0h-1.405v-2.493h1.404v2.493zm1.698 0h-1.404v-2.493h1.404v2.493zm1.698 0h-1.403v-2.493h1.403v2.493zM24.99 112.566c.16.092.322.176.487.267v-.088h1.404v.79l.299.139v-.929h1.403v1.518c.027.014.056.024.085.032v-1.729H24.99zM130.007 120.738h.176-.176zm-11.278-26.35c.034.111.062.224.093.334-.028-.11-.058-.223-.093-.335zm-83.9-51.72v.748h7.838v-.749H34.83zm95.178 78.07h.176-.176zm-11.278-26.35c.034.111.062.224.093.334-.028-.11-.058-.223-.093-.335zm11.278 26.345h.176-.176zM118.73 94.387c.034.112.062.225.093.335-.028-.11-.058-.223-.093-.335z" opacity=".1"/>
        <path fill="url(#g6dd78l5ba)" fill-rule="nonzero" d="M89.423 76.976s-.692-.096-.692-1.103c0-1.008-.494-2.889-.494-2.889 0-.009-.429-3.276-1.02-3.795-.591-.52-1.351-3.57-1.351-3.57s-.13-1.654-.395-2.01c-.265-.357-.623-1.229-1.151-2.473-.528-1.244-2.73-2.106-2.73-2.106s-3.982-2.309-5.11-3.062c-.103-.062-.199-.134-.286-.216-.197-.258-1.053-.263-1.053-.263-.09-.565-.176-1.214-.204-1.802 0-.063 0-.126-.008-.19 1.258-.743 2.205-1.916 2.669-3.302.02-.067.038-.137.057-.203.153-.05.277-.163.343-.31.101-.226.103-.49.23-.701.147-.25.428-.383.649-.57.558-.474.702-1.273.675-2-.017-.587-.112-1.18-.075-1.764l.01-.148c.01-.088.023-.175.039-.26.086-.435.274-.845.379-1.277.105-.432.116-.918-.13-1.29-.36-.546-1.109-.654-1.767-.71-.746-.064-1.412.019-1.89-.6-.223-.324-.474-.628-.75-.908-.1-.091-1.054-.674-1.054-.712-.931-.432-1.987-.513-2.974-.228-.495.143-.962.379-1.463.496-1.083.256-2.329-.02-3.249.599-.512.35-.819.909-1.107 1.453-.234.448-.471.895-.712 1.342-.388.735-.783 1.483-.946 2.297-.034.177-.055.357-.063.537V45.524c0 .061 0 .121.01.175.01.055.01.072.014.11.006.036.014.118.025.175.01.056.032.154.053.231.008.034.02.065.031.097.018.06.039.117.062.175.012.03.024.062.038.092.026.06.058.12.09.175.014.025.024.047.038.07.05.082.103.16.162.235.375.469.928.767 1.337 1.206v.196c.044 1.987 1.067 3.823 2.734 4.905 0 .067.009.135.012.202.034.52.028 1.043-.02 1.563-.144-.17-.358-.266-.582-.26-.075-.003-.15.003-.224.02l-.016-.012v.015c-.386.095-.862.497-1.316 1.64 0 0-1.383 1.558-2.436 1.493-1.053-.065-3.718 1.621-3.718 1.621s-2.6 1.688-3.159 3.408c-.312.975-.686 1.93-1.12 2.857l-3.214 6.624-.593 5.255s.328 2.338.263 2.694c-.065.356 1.35 3.569 1.35 3.569s4.672 8.21 6.582 8.632l.136-.097c.082.043.169.075.258.097l.393-.278c.024.31.014.62-.03.927-.263.81.099 6.101.559 7.138.46 1.037.296 14.635.296 14.635l-.065 1.2s0 .039.016.106l-.016.284.048.025c.049.38.033.767-.048 1.142-.165.526-.231 2.014-.231 2.014s-1.315 8.402-.692 10.09c.623 1.688 1.153 3.538 1.153 3.538s.658 2.106.032 2.465c-.627.36-2.408.964-2.041 1.841.333.81 1.598 2.983 1.786 3.3l-.016.167-.258 2.796c.042.369.142.729.297 1.067.283.609.832 1.24 1.876 1.172.175-.012.379-.033.575-.06 1.911-.256 4.265-1.109 4.265-1.109-.123-.077-.235-.17-.334-.275-.19-.184-.296-.438-.293-.702.028-.51-.925-2.934-1.162-3.53l-.056-.136s2.173-2.27 1.811-4.283c0 0-2.404-1.404-1.612-2.174.791-.77 2.205-2.984 2.205-2.984s.065-8.273 0-9.509c-.067-.857-.027-1.72.121-2.567.027-.128.058-.253.092-.375 1.094.163 2.199.247 3.306.25.403 0 .814 0 1.228-.024 0 .117.005.243.016.379.091 2.05.261 5.643.4 6.979.196 1.914 1.283 7.073 1.283 7.073s-2.073 1.33.361 4.608c0 0 0 1.188-.161 1.36-.173.562-.312 1.134-.416 1.713-.102.618-.144 1.242.02 1.567.396.775 2.765.712 2.765.712l.057-.01c.904-.094 1.807.179 2.508.756.9.723 4.317.405 6.166.176.725-.092 1.21-.176 1.21-.176.023-.082.031-.168.024-.253-.02-.454-.376-1.45-2.79-2.34 0 0-2.27-1.527-2.24-2.857h-.31c.191-.01.314 0 .314 0s-.89-3.247-.526-3.51c.363-.263-.725-3.86-.725-3.86s-.623-6.037-.656-6.46c.001-.362.056-.723.163-1.07l-.163-3.31s-.032-1.1 0-1.458c-.006-.31-.03-.62-.076-.928-.015-.123-.031-.25-.049-.377.851-.216 1.404-.416 1.404-.416l-.098-11.52c.723-1.404.856-4.484.853-6.668 0-1.404-.064-2.443-.064-2.443l.988-1.613s.228-1.93-.133-2.353c-.16-.19-.088-.39.044-.552.068-.055.14-.104.216-.148l-.023-.038c.069-.058.142-.11.22-.157 0 0-.352-.544-.038-.773.295.2.558.35.758.473-.014.128-.028.202-.028.202l.085-.175.31.175s1.548-3.083 1.515-3.537c-.034-.455 1.052-2.37 1.052-2.37s.132-1.005.725-1.426c.593-.421.46-3.473.46-3.473s.165-1.59.56-2.239c.394-.65-.36-1.525-.36-1.525zm-29.614-1.353l.03.736-.302-.486.272-.25z"/>
        <path fill="#FFF" fill-rule="nonzero" d="M85.555 90.214l-.379 1.615s-3.035-1.55-3.583-3.519c-.547-1.968.916-2.716.916-2.716l2.829 1.198.217 3.422z"/>
        <path fill="#000" fill-rule="nonzero" d="M85.555 90.214l-.379 1.615s-3.035-1.55-3.583-3.519c-.547-1.968.916-2.716.916-2.716l2.829 1.198.217 3.422z" opacity=".1"/>
        <path fill="#FFF" fill-rule="nonzero" d="M68.518 145.158s-2.807 1.032-4.738 1.161c-1.024.069-1.563-.56-1.84-1.165-.152-.336-.25-.695-.29-1.061l.251-2.782.133-1.48 4.101-1.066.581 1.776.055.135c.233.593 1.168 3.006 1.14 3.51-.002.26.102.51.288.693.094.106.201.2.32.279zM87.696 143.743c.007.085-.001.17-.024.251 0 0-6.005 1.002-7.234 0-.7-.592-1.617-.86-2.526-.74 0 0-2.324.063-2.712-.702-.16-.321-.119-.944-.019-1.558.102-.576.238-1.145.407-1.704l.093-.074.553-.444 6.472-.191h.049c-.032 1.323 2.197 2.84 2.197 2.84 2.367.878 2.716 1.87 2.744 2.322z"/>
        <path fill="#000" fill-rule="nonzero" d="M87.696 143.743c.006.085-.003.17-.026.251 0 0-6.003 1.002-7.232 0-.7-.591-1.616-.86-2.525-.74 0 0-2.325.063-2.71-.702-.162-.323-.122-.944-.022-1.558.895.09 2.308.312 2.862.844.839.809 2.26 1.616 3.132 1.679.683.044 4.766.174 6.521.226zM68.518 145.158s-2.807 1.032-4.738 1.161c-1.024.069-1.563-.56-1.839-1.167.715.24 1.706.494 2.227.262.618-.274 2.808-.451 4.036-.526.094.102.2.193.314.27z" opacity=".1"/>
        <path fill="#CF6F80" fill-rule="nonzero" d="M72.684 62.008c-2.316-.9-5.296-3.874-4.552-5.264.166-.35.264-.73.29-1.116.048-.525.055-1.053.02-1.58-.051-.861-.155-1.72-.31-2.568 0 0 7.232.163 6.81 1.228-.122.312-.142.854-.108 1.462.033.607.12 1.293.212 1.874.126.796.253 1.404.253 1.404s-.442.619-.702.652c-.26.034 1.41 5.19-1.913 3.908z"/>
        <path fill="#000" fill-rule="nonzero" d="M66.765 140.676l-.054.06c-2.162-2.615-4.777.644-4.777.644l-.038-.069.133-1.48 4.101-1.066.58 1.776.055.135zM82.757 138.765s-1.58-.033-2.422.71c-.842.745-4.913.162-4.738 0 .052-.08.083-.17.091-.266l.553-.444 6.472-.191c.024.117.044.191.044.191z" opacity=".1"/>
        <path fill="#F46036" fill-rule="nonzero" d="M69.455 118.233c-.117.29-.207.592-.266.9-.147.843-.187 1.701-.121 2.555.065 1.228 0 9.46 0 9.46s-1.388 2.195-2.162 2.969 1.579 2.163 1.579 2.163c.351 2-1.776 4.261-1.776 4.261-2.162-2.615-4.776.646-4.776.646s-1.422-2.457-1.776-3.334c-.355-.878 1.388-1.485 2-1.841.613-.356-.03-2.457-.03-2.457s-.517-1.84-1.131-3.52c-.615-1.68.677-10.039.677-10.039s.067-1.484.226-2.002c.08-.374.097-.758.048-1.137-.01-.128-.023-.235-.032-.307-.009-.072-.016-.105-.016-.105l.025-.043.877-1.635s7.076 2.436 6.654 3.466zM82.757 138.572s-1.58-.033-2.422.702c-.842.735-4.913.161-4.738 0 .176-.161.162-1.356.162-1.356-2.389-3.26-.351-4.584-.351-4.584s-1.067-5.133-1.26-7.036c-.135-1.33-.302-4.905-.392-6.946-.038-.877-.061-1.48-.061-1.48l1.951-.394.251-.05 4.706-.945s.13.878.218 1.595c.044.307.068.615.074.925-.032.35 0 1.45 0 1.45l.16 3.293c-.105.346-.159.704-.16 1.065.031.42.644 6.424.644 6.424s1.065 3.584.702 3.842c-.364.258.516 3.495.516 3.495z"/>
        <path fill="#000" fill-rule="nonzero" d="M74.943 52.708c-.123.312-.143.854-.11 1.462-1.976 1.19-4.46 1.144-6.39-.12-.052-.862-.156-1.72-.31-2.57 0 0 7.23.16 6.81 1.228z" opacity=".1"/>
        <path fill="#CF6F80" fill-rule="nonzero" d="M77.738 48.83c.001.632-.098 1.26-.295 1.862-.908 2.78-3.686 4.502-6.58 4.077-2.893-.424-5.06-2.872-5.131-5.795v-.144c-.037-2.17 1.099-4.19 2.972-5.286 1.873-1.095 4.19-1.095 6.064 0 1.873 1.096 3.009 3.116 2.972 5.286h-.002z"/>
        <path fill="#000" fill-rule="nonzero" d="M72.684 62.008c-2.316-.9-5.296-3.874-4.552-5.264.166-.35.264-.73.29-1.116l3.17 2.606 1.963 1.609 1.491-3.798c.126.797.253 1.404.253 1.404s-.442.62-.702.653c-.26.033 1.41 5.189-1.913 3.906z" opacity=".1"/>
        <path fill="#F46036" fill-rule="nonzero" d="M80.884 73.525L78.236 118.008 74.783 118.234 65.841 92.441 67.308 61.819 67.616 55.349 71.593 58.614 73.556 60.224 75.092 56.316 77.947 58.804z"/>
        <path fill="#000" fill-rule="nonzero" d="M69.455 118.233c-.117.29-.207.592-.266.9-2.513-.388-4.954-1.15-7.24-2.262l-.048-.025.016-.282.009-.148.877-1.635s7.074 2.422 6.652 3.452zM75.687 119.14c-.643.11-1.29.183-1.941.22-.039-.876-.062-1.48-.062-1.48l1.952-.393.05 1.653zM80.81 118.087c-1.247.325-3.174.69-4.899.461l-.024-1.112 4.706-.944s.13.869.217 1.595z" opacity=".1"/>
        <path fill="#000" fill-rule="nonzero" d="M75.88 118.752c-7.195 1.228-13.784-2.293-13.784-2.293l.063-1.194s.163-13.527-.29-14.564c-.452-1.037-.805-6.296-.549-7.104.256-.807-.935-12.911-.935-12.911l-.193-4.913-7.065-2.862 3.159-6.584c.426-.923.793-1.873 1.098-2.843.55-1.71 3.1-3.389 3.1-3.389s2.614-1.677 3.647-1.614c1.034.063 2.389-1.484 2.389-1.484 1-2.55 1.905-1.395 1.905-1.395 0 .12 0 0-.049.377-.35 2.799 5.675 11.643 5.761 11.799l.574 13.978.58 17.69.589 19.306z" opacity=".1"/>
        <path fill="#FFF" fill-rule="nonzero" d="M75.687 118.752c-7.195 1.228-13.786-2.293-13.786-2.293l.065-1.194s.163-13.527-.291-14.564c-.455-1.037-.806-6.296-.548-7.104.258-.807-.935-12.911-.935-12.911l-.195-4.913L52.93 72.9l3.159-6.584c.425-.923.792-1.873 1.098-2.843.548-1.709 3.099-3.388 3.099-3.388s2.615-1.678 3.646-1.614c1.032.063 2.389-1.485 2.389-1.485 1.002-2.55 2.105-1.395 2.105-1.395 0 .121-.105.175-.049.377.772 2.715 5.482 11.643 5.568 11.8l.58 13.978.582 17.69.58 19.316z"/>
        <path fill="#000" fill-rule="nonzero" d="M73.748 68.166c-.774-.323-4.873-5.003-4.873-5.003v-1.065c-.15-.351-1.036-.137-1.755.108l.309-6.47.35.292c.77 2.713 5.88 11.981 5.969 12.138z" opacity=".1"/>
        <path fill="#FFF" fill-rule="nonzero" d="M73.942 67.778c-.775-.323-4.874-5.003-4.874-5.003V61.71c-.15-.351-1.036-.137-1.755.109l.31-6.47.351.291c.77 2.713 5.882 11.983 5.968 12.138z"/>
        <path fill="#000" fill-rule="nonzero" d="M62.096 91.118c.096 0 5.003-.516 5.003-.516s2.97 5.842 2.776 7.263c-.195 1.421-.548 2.68-1.743 2.457-1.195-.223-6.43.175-6.43.175l.394-9.379z" opacity=".1"/>
        <path fill="#FFF" fill-rule="nonzero" d="M61.901 90.73c.097 0 5.003-.516 5.003-.516s2.969 5.844 2.776 7.263c-.193 1.42-.55 2.68-1.742 2.457-1.194-.223-6.432.175-6.432.175l.395-9.379z"/>
        <path fill="#CF6F80" fill-rule="nonzero" d="M65.598 87.987s4.503 2.42 4.6 3.16c.096.738-2.292-.324-2.808-.452-.34-.082-.685-.136-1.034-.161l-3.44.093 2.682-2.64z"/>
        <circle cx="72.491" cy="67.994" r="1" fill="#000" fill-rule="nonzero" opacity=".1"/>
        <circle cx="72.491" cy="67.801" r="1" fill="#3F3D56" fill-rule="nonzero"/>
        <circle cx="73.363" cy="88.503" r="1" fill="#000" fill-rule="nonzero" opacity=".1"/>
        <circle cx="73.363" cy="88.309" r="1" fill="#3F3D56" fill-rule="nonzero"/>
        <circle cx="72.963" cy="78.249" r="1" fill="#000" fill-rule="nonzero" opacity=".1"/>
        <circle cx="72.963" cy="78.056" r="1" fill="#3F3D56" fill-rule="nonzero"/>
        <path fill="#FFF" fill-rule="nonzero" d="M83.885 90.435s.323.485 0 .711c-.323.226.031.774.031.774s-.805.472-.45.897c.354.424.13 2.342.13 2.342l-.97 1.604s.059 1.034.062 2.43c0 2.18-.128 5.244-.837 6.64l.098 11.46s-3.392 1.24-6.23.862l-.422-18.39s.614-10.428.84-12.429c.133-1.038.187-2.085.162-3.132 0 0-.097-3.13-.421-4.583 0 0-.351-6.295-.386-8.037-.016-.834.028-3.266.077-5.578.054-2.53.116-4.914.116-4.914l-.64-5.068s.64-.065.833.193c.086.081.18.153.28.216 1.106.748 5.012 3.047 5.012 3.047s2.162.86 2.68 2.091c.517 1.232.877 2.106 1.128 2.457.251.35.388 2 .388 2s.744 3.036 1.325 3.55c.58.514 1.005 3.785 1.005 3.785L82.563 77.4s-.45 6.714-.547 6.974c-.097.26 1.869 6.062 1.869 6.062z"/>
        <path fill="#FFF" fill-rule="nonzero" d="M84.08 90.435s.32.485 0 .711c-.322.226.03.774.03.774s-.8.477-.45.902c.351.425.13 2.342.13 2.342l-.969 1.604s.058 1.034.064 2.43c0 2.18-.128 5.244-.837 6.64l.096 11.461s-3.397 1.239-6.233.862l-.42-18.39s.615-10.429.841-12.43c.133-1.038.186-2.085.16-3.132 0 0-.097-3.13-.42-4.583 0 0-.35-6.294-.387-8.037-.016-.833.03-3.265.077-5.578.054-2.529.116-4.914.116-4.914l-.846-5.136s.846 0 1.04.262c.086.081.18.154.281.216 1.106.747 5.014 3.046 5.014 3.046s2.16.86 2.678 2.091c.517 1.232.877 2.106 1.13 2.457.252.351.386 2 .386 2s.744 3.036 1.324 3.55c.581.515 1 3.779 1 3.779l-5.132 4.035s-.451 6.714-.55 6.974c-.097.26 1.877 6.064 1.877 6.064z"/>
        <path fill="#000" fill-rule="nonzero" d="M77.933 62.587l.463 1.351-2.44 2.457c.055-2.527.117-4.913.117-4.913l-.846-5.136s.846 0 1.04.261c.086.081.18.153.281.214l2.074 5.984-.69-.218z" opacity=".1"/>
        <path fill="#FFF" fill-rule="nonzero" d="M77.738 62.2l.465 1.35-2.44 2.457c.055-2.528.117-4.913.117-4.913l-.848-5.136s.848 0 1.04.261c.087.081.18.154.281.216l2.076 5.982-.691-.218z"/>
        <path fill="#000" fill-rule="nonzero" d="M77.738 48.83c.001.632-.098 1.26-.295 1.862-.067.01-.135-.007-.19-.048-.045-1.579-.822-3.062-1.779-4.323-.268-.381-.594-.719-.965-1-.375-.282-.842-.414-1.309-.37-.526.071-.991.429-1.523.475-.702.058-1.33-.429-2.027-.453-.573.005-1.116.257-1.49.691-.366.433-.638.938-.798 1.481-.276.825-.426 1.686-.446 2.555-.009.492-.056 1.107-.512 1.286.07-.73-.17-1.456-.662-2.002l-.01-.01v-.144c-.037-2.17 1.099-4.19 2.972-5.286 1.873-1.095 4.19-1.095 6.064 0 1.873 1.096 3.009 3.116 2.972 5.286h-.002z" opacity=".1"/>
        <path fill="#512E4E" fill-rule="nonzero" d="M74.221 39.296c-.912-.429-1.949-.51-2.916-.228-.486.144-.944.377-1.437.495-1.053.254-2.281-.021-3.185.595-.502.35-.804.905-1.085 1.444l-.701 1.337c-.383.732-.77 1.476-.929 2.281-.16.806-.063 1.708.448 2.355.372.472.921.769 1.325 1.213.488.546.727 1.27.66 2 .457-.175.501-.793.512-1.284.02-.87.17-1.73.445-2.555.16-.544.433-1.049.799-1.481.374-.434.917-.686 1.49-.692.702.025 1.332.51 2.026.451.527-.044.994-.403 1.524-.473.467-.045.934.087 1.309.37.37.281.696.619.963 1 .958 1.262 1.735 2.741 1.781 4.324.198.145.484-.044.583-.269.098-.224.101-.488.226-.702.144-.247.42-.379.635-.565.548-.472.685-1.267.664-1.988-.022-.721-.162-1.453-.025-2.162.082-.435.268-.842.37-1.272.102-.43.114-.912-.126-1.283-.351-.544-1.09-.65-1.734-.702-.732-.063-1.386.018-1.853-.598-.219-.321-.466-.623-.737-.902-.093-.091-1.032-.67-1.032-.709z"/>
        <path fill="#000" fill-rule="nonzero" d="M55.149 76.3l-1.834-3.39-.58 5.231s.322 2.324.257 2.68c-.065.356 1.323 3.55 1.323 3.55s4.585 8.167 6.458 8.588l6.326-4.52-1.678-2.13s-.58-.227-.726 0c0 0-3.115-5.36-3.438-5.748-.323-.387-.26-1.161-.26-1.161s-.484-.516-.322-1c.161-.485-.936-2.164-.936-2.164l1-.935-5.59 1z" opacity=".1"/>
        <path fill="#FFF" fill-rule="nonzero" d="M53.412 72.524l-.485.387-.58 5.23s.322 2.324.257 2.68c-.065.356 1.325 3.55 1.325 3.55s4.584 8.167 6.456 8.588l6.328-4.52-1.68-2.13s-.58-.227-.726 0c0 0-3.115-5.36-3.438-5.748-.323-.387-.258-1.161-.258-1.161s-.484-.516-.323-1c.162-.485-.937-2.164-.937-2.164l1-.935-6.94-2.777z"/>
        <path fill="#000" fill-rule="nonzero" d="M83.465 93.017c.351.426.13 2.34.13 2.34l-.968 1.604s.058 1.036.061 2.43l-1.628.51c-.299.093-.624.036-.873-.153-.25-.19-.392-.488-.382-.8l.28-9.057 3.8 1.453c-.323.225.031.776.031.776s-.805.47-.45.897z" opacity=".1"/>
        <path fill="#FFF" fill-rule="nonzero" d="M83.66 92.822c.351.426.13 2.342.13 2.342l-.969 1.604s.058 1.034.064 2.43l-1.659.518c-.292.091-.61.035-.854-.15s-.383-.477-.374-.783l.283-9.085 3.8 1.453c-.324.225.03.774.03.774s-.802.472-.45.897z"/>
        <path fill="#CF6F80" fill-rule="nonzero" d="M84.918 88.505s-.258 1.648-.903 1.744c-.646.097-.936 2.666-1.58 2.575-.644-.092-.217-2.389-.194-2.834.022-.446-.702-2.292-.16-2.711.542-.42 2.258 0 2.258 0l.58 1.226z"/>
        <path fill="#000" fill-rule="nonzero" d="M86.292 75.816l1.218-2.456s.484 1.872.484 2.872c0 1 .678 1.099.678 1.099s.742.877.35 1.516c-.39.639-.548 2.228-.548 2.228s.128 3.034-.453 3.454c-.581.42-.702 1.421-.702 1.421s-1.067 1.904-1.034 2.357c.034.453-1.484 3.518-1.484 3.518s.742-3.81-3.583-5.455c0 0-.034-1.294.29-1.648.322-.355.826-.516.51-2.308-.316-1.791-.091-3.932-.091-4.362 0-.43.968-3.111.968-3.111l3.397.875z" opacity=".1"/>
        <path fill="#FFF" fill-rule="nonzero" d="M86.819 73.009l1.063.35s.486 1.873.486 2.873c0 1 .678 1.099.678 1.099s.742.877.35 1.516c-.39.639-.547 2.228-.547 2.228s.128 3.034-.453 3.454c-.58.42-.71 1.421-.71 1.421s-1.065 1.904-1.032 2.357c.033.453-1.486 3.518-1.486 3.518s.744-3.81-3.584-5.455c0 0-.031-1.294.292-1.648.323-.355.826-.516.51-2.308-.316-1.791-.091-3.932-.091-4.362 0-.43.969-3.111.969-3.111l3.555-1.932z"/>
        <path fill="#000" fill-rule="nonzero" d="M63.331 136.684s1.695-1.065 2.808-.291c1.112.774-2.808.291-2.808.291zM76.503 133.39s1.5-.193 2.76 1.164c1.26 1.356-2.76-1.164-2.76-1.164z" opacity=".1"/>
        <g fill="#000" fill-rule="nonzero" opacity=".1">
            <path d="M14.824 5.887c-.216.186-.493.32-.637.567-.123.212-.126.474-.224.702-.099.228-.385.414-.583.27-.046-1.58-.825-3.062-1.781-4.325-.267-.382-.592-.719-.963-1-.376-.283-.843-.415-1.311-.37-.527.071-.99.43-1.522.473-.701.06-1.331-.426-2.028-.451-.573.006-1.115.258-1.488.693-.366.432-.638.936-.799 1.48-.275.824-.426 1.685-.445 2.554-.01.49-.056 1.1-.51 1.283.011.13.011.26 0 .39.457-.176.503-.794.513-1.285.02-.869.17-1.73.446-2.555.16-.544.432-1.048.798-1.48.374-.434.916-.686 1.488-.692.702.024 1.334.509 2.029.45.526-.043.993-.403 1.521-.473.468-.044.936.088 1.311.37.371.282.696.62.964 1 .956 1.262 1.735 2.741 1.78 4.324.199.146.485-.044.583-.268.098-.225.102-.488.225-.702.144-.248.42-.38.637-.565.547-.472.684-1.267.663-1.988v-.067c-.033.625-.2 1.262-.667 1.665zM1.87 5.763c-.403-.444-.954-.74-1.324-1.211-.312-.416-.49-.918-.51-1.437-.056.65.125 1.297.51 1.823.37.472.921.768 1.325 1.212.387.435.62.985.661 1.566.054-.714-.184-1.42-.661-1.953zM15.833.465c-.103.43-.288.839-.372 1.272-.05.29-.068.584-.054.878.006-.168.024-.334.054-.499.084-.435.269-.842.372-1.272.06-.237.08-.483.058-.726-.01.117-.03.233-.058.347z" transform="translate(63.873 42.64)"/>
        </g>
        <ellipse cx="31.714" cy="141.073" fill="#F46036" fill-rule="nonzero" opacity=".1" rx="17.098" ry="2.746"/>
        <path fill="#535461" fill-rule="nonzero" d="M31.165 88.465H32.265V113.237H31.165z"/>
        <path fill="#3F3D56" fill-rule="nonzero" d="M39.179 113.161l-.069 1.116-.098 1.58-.04.656-.097 1.58-.042.656-.098 1.579-1.11 17.91c-.1 1.6-1.425 2.846-3.028 2.847h-5.766c-1.602 0-2.928-1.247-3.027-2.846L24.7 120.316l-.098-1.58-.04-.656-.099-1.58-.04-.656-.098-1.579-.07-1.116c-.025-.434.13-.86.43-1.175.298-.316.714-.494 1.149-.494h11.793c.434.004.846.187 1.14.505.294.319.443.744.412 1.176z"/>
        <path fill="#9D9CB5" fill-rule="nonzero" d="M39.11 114.277L39.012 115.851 24.416 115.851 24.318 114.277zM38.972 116.508L38.875 118.083 24.554 118.083 24.456 116.508zM38.833 118.742L38.736 120.316 24.693 120.316 24.595 118.742z"/>
        <path fill="#F46036" fill-rule="nonzero" d="M22.638 97.75c6.407 4.635 9.081 11.886 9.081 11.886s-7.72-.265-14.13-4.901c-6.408-4.636-9.077-11.885-9.077-11.885s7.718.263 14.126 4.9z"/>
        <path stroke="#535461" stroke-width="1.08" d="M8.507 92.85s8.016 4.448 10.587 8.132c2.57 3.683 12.625 8.654 12.625 8.654"/>
        <path fill="#F46036" fill-rule="nonzero" d="M26.774 88.41c3.487 2.522 4.945 6.468 4.945 6.468s-4.203-.143-7.691-2.665c-3.488-2.522-4.943-6.47-4.943-6.47s4.2.144 7.69 2.667z"/>
        <path stroke="#535461" stroke-width="1.08" d="M19.085 85.743s4.362 2.422 5.76 4.426c1.4 2.004 6.874 4.71 6.874 4.71"/>
        <path fill="#F46036" fill-rule="nonzero" d="M36.782 94.678c-4.006 4.403-4.854 10.157-4.854 10.157s5.649-1.386 9.651-5.79c4.003-4.405 4.854-10.157 4.854-10.157s-5.645 1.388-9.651 5.79z"/>
        <path stroke="#535461" stroke-width="1.08" d="M46.436 88.89s-5.218 4.513-6.545 7.622c-1.327 3.11-7.963 8.323-7.963 8.323"/>
        <path fill="url(#dol9x7csbb)" fill-rule="nonzero" d="M183.842 93.129s-2.898-14.414-1.789-16.207c0 0 .04-1.667-.026-3.792v-.244c.195.13.399.247.609.35 1.022.526 2.195.677 3.317.43l-.878-.978c-.21-.234-.43-.486-.475-.795-.046-.31.08-.585.19-.86.833-2.106.877-4.754-.73-6.361-1.356-1.351-1.685-3.096-3.158-4.33-1.075-.903-1.667-2.228-2.225-3.509-.472-1.082-.947-2.174-1.218-3.321-.21-.897-.294-1.825-.584-2.701-.29-.876-.832-1.727-1.68-2.118-.301-.139-.636-.218-.912-.402-.361-.244-.579-.64-.84-.988-1.329-1.755-5.777-.721-7.883-.009-.572.18-1.102.474-1.558.864l.02-.032c.015-.026.035-.052.052-.079-.23.187-.43.409-.59.658-.307.486-.435 1.053-.69 1.58-.31.623-2.028 2.361-1.289 3.062.052.047.111.085.176.112.277.115.582.146.877.088l-.032.075c-.252.618-.381 1.279-.38 1.946 0 2.883 2.377 5.22 5.313 5.22.552.001 1.1-.084 1.627-.25l.035.2c0 .026.009.052.012.079l-.093.13-.016-.023-2.755 3.85c-.42.296-2.846 2.051-2.983 3.367-.144 1.44-.288 3.127-.288 3.127l-.019.362c-.244.203-.564.29-.877.236-.86-.14-.86 3.159-.86 3.159s-.572.526-.965.07-1.432 1.09-1.432 1.09l-6.51.28-.15.01-.35-1.087c-.079-.238-.335-.369-.574-.293-.027.01-.054.02-.08.034l-.024.014-.045.031-.023.021c-.013.012-.024.024-.035.037l-.021.025-.01.01c-.083.114-.106.26-.064.393l.302.932c-1.257.253-2.541.965-1.493 2.927l-5.31-.98 1.718 1.441 8.868 1.83c-.117.211-.04.517.326.947 1.58 1.854 4.458 2.358 5.616 2.488.306.684.688 1.331 1.139 1.93l-.1 1.848s-2.933 14.084-3.47 14.798c.271-.307.52-.634.743-.978-.851 2.894-2.041 6.854-2.353 7.448-.502.947-.967 4.781-.395 5.027.175.075.677.039 1.393-.016v.318l-.032 12.036s.144 7.382-.25 8.086c-.395.703-.5 2.18-.5 2.18s-1.58 2.91-2.831 4.08c-.009.01-.018.018-.028.025l-.039-.273s-1.504 1.898-4.83 1.791c0 0-2.003 1.302.966 1.372 2.97.07 6.761-.105 6.761-.105s2.648-4.036 4.866-3.51v3.06h.68v-3.109c.636-.419 1.073-1.08 1.208-1.83.119-.778-.183-1.56-.793-2.058-.272-.246-.429-.595-.433-.962l-.025.021c0-.061-.015-.124-.023-.19-.194-1.579-.438-4.837.423-7.248 1.181-3.306 1.54-7.91.68-10.652-.278-.876-.506-1.767-.683-2.669l-.058-.324c.588.08 1.17.197 1.742.35 1.992.55 6.35.652 10.07.622.008.102.019.209.03.316.067.744.206 1.48.415 2.197.467 1.404.68 7.593.68 7.593s.603 5.088.275 7.16c-.176 1.15-.351 2.307-.451 3.468v.023s-.987 2.808-1.708 4.333l-.054.114c-.192.017-.382.059-.563.124 0 0-.967 1.93-1.93 2.25-.964.32-.645 1.37 1.536.984 2.182-.386 5.475-.702 5.475-.702l.142-1.969.67-.838-.175 1.963.715-.14-.095-2.388 1.097-1.373s1.324-1.179-.644-3.499v.051c-.022-.033-.04-.068-.064-.101v-.011c-.326-.505-.586-1.448-.11-3.12.86-3.022 1.36-5.764 1.36-5.764s1.92-7.348-.388-10.824h.102c-.237-.489-.404-1.009-.497-1.544-.012-.063-.022-.128-.031-.195 1.707-.098 3.383-.407 4.75-1.074-.006-.007-.829-17.442-1.51-20.218zm-21.677-12.16v.035l-.351.017.35-.053zm-1.204.166c-.058.013-.112.039-.158.076-.15.213-.245.461-.275.72l-.548-.122s-.384-.083-.937-.176l-.261-.263c.72-.06 1.467-.147 2.18-.235z"/>
        <path fill="#1D2366" fill-rule="nonzero" d="M179.076 140.825L178.867 143.312 179.567 143.171 179.462 140.474z"/>
        <path fill="#FFB0B1" fill-rule="nonzero" d="M163.102 129.02c-.844 2.403-.605 5.648-.416 7.224.07.582.135.937.135.937s-1.261 2.874-1.367 2.983c-.105.108-3.713 2.31-3.713 2.31l-2.521 1.473s-2.559-1.121-1.332-1.507c.25-.101.476-.255.661-.451 1.229-1.167 2.771-4.068 2.771-4.068s.105-1.472.491-2.172c.386-.7.246-8.058.246-8.058l.03-11.994v-1.564l4.8.036c.03.53.099 1.058.206 1.579.172.899.396 1.787.669 2.66.846 2.736.495 7.317-.66 10.611z"/>
        <path fill="#000" fill-rule="nonzero" d="M162.821 137.18s-1.261 2.875-1.367 2.984c-.105.108-3.713 2.31-3.713 2.31l-2.521 1.473s-2.559-1.121-1.332-1.507c.25-.101.476-.255.661-.451l.11.766.84-.035 7.194-6.473c.063.58.128.934.128.934z" opacity=".1"/>
        <path fill="#1D2366" fill-rule="nonzero" d="M162.733 136.41l-7.234 6.517-.84.036-.176-1.229s-1.47 1.892-4.738 1.787c0 0-1.962 1.296.946 1.367 2.907.07 6.62-.106 6.62-.106s2.594-4.036 4.764-3.51v3.049h.667v-3.076c.627-.422 1.054-1.081 1.183-1.825.117-.772-.176-1.549-.774-2.05-.265-.249-.416-.596-.418-.96z"/>
        <path fill="#FFB0B1" fill-rule="nonzero" d="M179.742 132.767c-.466 1.667-.212 2.606.107 3.11v.01c.41.622.695 1.318.84 2.048l.027.158-3.292 4.8-1.786.701s-2.873-.98-2.348-1.261c.132-.069.337-.434.572-.937.702-1.518 1.67-4.319 1.67-4.319v-.023c.103-1.156.264-2.309.443-3.457.321-2.065-.269-7.135-.269-7.135s-.21-6.164-.666-7.566c-.206-.713-.343-1.444-.41-2.183-.094-.877-.115-1.6-.115-1.6s1.892-2.632 5.359.21c.277.227.521.492.725.786 2.395 3.408.467 10.915.467 10.915s-.483 2.73-1.324 5.743z"/>
        <path fill="#000" fill-rule="nonzero" d="M180.722 138.093l-3.292 4.8-1.787.701s-2.872-.98-2.348-1.261c.132-.069.337-.434.572-.937 1.217-.011 1.846 1.147 1.846 1.147l1.541-.246s2.032-3.993 2.488-4.237c.457-.244.07-1.823.07-1.823v-.402c.013.014.023.03.037.044v.01c.41.622.695 1.317.84 2.048l.033.156z" opacity=".1"/>
        <path fill="#1D2366" fill-rule="nonzero" d="M175.819 142.647s-.878-1.611-2.559-1.016c0 0-.945 1.93-1.891 2.242-.946.313-.63 1.365 1.507.981s5.36-.702 5.36-.702l.14-1.963 2.172-2.768s1.295-1.174-.632-3.485v.402s.386 1.58-.07 1.824c-.456.243-2.481 4.239-2.481 4.239l-1.546.246z"/>
        <path fill="#000" fill-rule="nonzero" d="M162.891 114.165c.03.53.1 1.059.207 1.58-1.975-.29-3.81-.146-5.011-.052v-1.563l4.804.035zM180.794 116.546s-2.808.137-6.156.165c-.095-.877-.116-1.6-.116-1.6s1.892-2.632 5.36.21c.276.227.52.492.724.787.054.15.117.296.188.438z" opacity=".1"/>
        <path fill="#1D2366" fill-rule="nonzero" d="M180.794 116.23s-12.298.595-16.046-.456c-3.748-1.05-7.463-.14-8.023-.384-.56-.244-.105-4.064.386-5.01.492-.946 3.187-10.511 3.187-10.511l2.593-13.522 2.733-.753.193-.054 4.76-1.313 3.489-.963s6.936 27.081 6.341 29.078c-.216.765-.25 1.569-.101 2.35.09.533.255 1.05.488 1.538z"/>
        <path fill="#C7DAF5" fill-rule="nonzero" d="M153.85 77.1s-2.456 2.631-.596 4.098c1.86 1.467 3.083.14 3.083.14l-2.486-4.239z"/>
        <path fill="#000" fill-rule="nonzero" d="M153.85 77.1s-2.456 2.631-.596 4.098c1.86 1.467 3.083.14 3.083.14l-2.486-4.239z" opacity=".1"/>
        <path fill="#FFB0B1" fill-rule="nonzero" d="M173.699 59.794s-.288.273-.721.677c-.618.577-1.532 1.421-2.343 2.129-1.123.977-2.05 1.695-1.718 1.082.332-.612.269-1.68.104-2.678l-.035-.198c-.137-.733-.318-1.457-.543-2.169 0 0 1.815-2.344 2.819-3.269.373-.35.635-.495.65-.25.018.327.264 1.052.57 1.82.008.025.017.048.027.073.204.526.434 1.066.636 1.533.308.716.554 1.25.554 1.25z"/>
        <path fill="#000" fill-rule="nonzero" d="M172.51 57.01c-.348 1.869-1.685 3.4-3.49 3.994-.139-.8-.332-1.591-.577-2.367 0 0 3.417-4.413 3.47-3.52.012.339.279 1.09.596 1.894zM168.68 62.184l.443-.623s.293 1.786 1.37.998c1.077-.788 1.13 5.93 1.13 5.93l-1.156 17.29-8.356-.5.236-8.355.946-4.212 2.34-6.122 1.39-2.023 1.657-2.383z" opacity=".1"/>
        <path fill="#1D2366" fill-rule="nonzero" d="M171.623 68.596l-1.053 15.633-.11 1.656-4.66-.279-.175-.01-3.51-.21.238-8.357.946-4.211 2.339-6.123 1.391-2.023 1.657-2.392.442-.621s.293 1.786 1.37.998l.023-.015c1.053-.667 1.102 5.954 1.102 5.954z"/>
        <path fill="#FFF" fill-rule="nonzero" d="M163.416 71.354s-.42.877-1.262.735c-.842-.142-.84 3.159-.84 3.159s-.56.526-.946.07c-.386-.456-1.404 1.086-1.404 1.086l-6.377.281s2.838 1.297 2.282 5.22c0 0 9.633-.596 9.95-1.507.315-.91-1.403-9.044-1.403-9.044z"/>
        <path fill="#000" fill-rule="nonzero" d="M163.416 71.354s-.42.877-1.262.735c-.842-.142-.84 3.159-.84 3.159s-.56.526-.946.07c-.386-.456-1.404 1.086-1.404 1.086l-6.377.281s2.838 1.297 2.282 5.22c0 0 9.633-.596 9.95-1.507.315-.91-1.403-9.044-1.403-9.044z" opacity=".03"/>
        <path fill="#FFF" fill-rule="nonzero" d="M144.884 78.747L146.565 80.182 160.403 83.09 158.687 81.339zM168.707 62.736c-.23.351-.888 2.148-1.437 3.717-.458 1.307-.841 2.457-.841 2.457s-.893 5.815-1.35 6.866c-.456 1.051-.208 5.15-.208 5.15l-1.7 10.124s-.77 5.22-1.96 8.338c-1.175 3.07-2.482 4.508-2.522 4.554.526-.713 3.395-14.74 3.395-14.74l.948-17.692s.138-1.68.279-3.118c.14-1.437 2.983-3.399 2.983-3.399l2.74-3.897c.276.368.092 1.01-.327 1.64z"/>
        <path fill="#FFB0B1" fill-rule="nonzero" d="M161.56 85.473s-4.036-.176-5.991-2.523c-1.955-2.348 4.518-.938 4.518-.938l1.683.387-.21 3.074z"/>
        <path fill="#000" fill-rule="nonzero" d="M180.407 112.344c-.216.764-.25 1.569-.101 2.35-4.403.312-9.113-.878-9.113-.878-.877.807-3.188 1.997-3.188 1.997l-1.26-15.618c-.806-2.105-1.121-13.138-1.121-13.138s.072-.577.175-1.442c0-.021 0-.044.009-.065.314-2.416.937-6.952 1.242-7.565.421-.842-1.295-3.083-1.295-3.083l.781-6.66.095-.803c1.646-.735 2.907-3.083 2.907-3.083l.97-1.697c1.052-.675 1.106 5.945 1.106 5.945l-1.053 15.634 3.489-.964s6.952 27.073 6.357 29.07z" opacity=".1"/>
        <path fill="#FFF" fill-rule="nonzero" d="M184.926 113.423c-4.8 2.383-13.522.175-13.522.175-.878.807-3.189 1.997-3.189 1.997l-1.261-15.617c-.804-2.106-1.12-13.138-1.12-13.138s1.014-8.232 1.436-9.072c.122-.246.063-.61-.083-1.004-.716-1.87-.98-3.885-.769-5.877l.337-2.862.093-.802c1.648-.737 2.91-3.085 2.91-3.085l.877-1.537 1.615-2.832.765-1.34.13.117.991.898 1.053.878c1.374 1.158 3.748 3.197 4.973 4.445 1.077 1.098 1.418 5.371 1.516 8.587.065 2.118.026 3.778.026 3.778-1.086 1.789 1.755 16.144 1.755 16.144.662 2.775 1.467 20.147 1.467 20.147z"/>
        <path fill="#000" fill-rule="nonzero" d="M175.713 64.103s-3.293 6.27-2.91 8.653c.382 2.383 1.47 5.08.945 5.71-.365.484-.936.769-1.542.77-.527.036-1.93 1.016-1.93 1.122 0 .105-1.297.105-2.457.596-1.16.492-2.873.77-2.873.77s-3.334-.105-3.644.211c-.311.316-.63 2.206.035 3.713.665 1.508 1.404 2.633 1.962 2.838.558.205 4.099-.981 6.971-1.262 2.873-.28 5.991-2.557 5.991-2.557s3.434-1.228 4.036-3.293c.602-2.066-.735-13.417-.735-13.417s-1.011-5.29-3.849-3.854z" opacity=".03"/>
        <path fill="#000" fill-rule="nonzero" d="M175.292 63.577s-3.293 6.271-2.907 8.653c.386 2.38 1.47 5.08.944 5.711-.364.485-.935.77-1.54.77-.527.036-1.931 1.017-1.931 1.122 0 .105-1.297.105-2.457.595s-2.872.77-2.872.77-3.334-.105-3.643.21c-.31.317-.632 2.208.035 3.714.667 1.506 1.404 2.632 1.962 2.837.558.206 4.099-.98 6.971-1.26 2.873-.279 5.991-2.558 5.991-2.558s3.432-1.228 4.027-3.292c.595-2.064-.735-13.419-.735-13.419s-1.007-5.288-3.845-3.853z" opacity=".03"/>
        <path fill="#FFF" fill-rule="nonzero" d="M175.61 63.787s-3.294 6.272-2.908 8.653c.386 2.381 1.47 5.08.946 5.71-.364.486-.935.772-1.542.772-.527.035-1.93 1.016-1.93 1.12 0 .103-1.296.105-2.457.597-1.162.49-2.873.77-2.873.77s-3.334-.105-3.644.21c-.311.316-.63 2.208.035 3.714.665 1.505 1.403 2.632 1.962 2.837.558.205 4.099-.98 6.971-1.262 2.873-.28 5.991-2.556 5.991-2.556s3.434-1.229 4.036-3.294c.602-2.065-.727-13.417-.727-13.417s-1.024-5.282-3.86-3.854z"/>
        <path fill="#000" fill-rule="nonzero" d="M175.538 80.609s-2.632-.527-1.716.35c.916.878.91 1.647 2.032 1.612 1.121-.036-.316-1.962-.316-1.962zM179.986 99.486s-1.19.806 1.087 2.662c2.275 1.857-1.087-2.662-1.087-2.662zM177.716 106.107c0 .105-.421 3.86 1.154 4.8 1.576.938-1.154-4.8-1.154-4.8z" opacity=".1"/>
        <path fill="#FFB0B1" fill-rule="nonzero" d="M152.696 76.676c-1.27.044-4.015.432-2.592 3.087 1.259 2.35 3.373.779 4.563-.412-.29-1.111-.996-2.069-1.97-2.675z"/>
        <path fill="#FFB0B1" fill-rule="nonzero" d="M154.683 79.33l.052-.055-.052.054z"/>
        <path fill="#000" fill-rule="nonzero" d="M175.189 60.429c-1.348.921-2.478 1.698-2.699 1.86-.604.447-1.755 3.074-2.497 4.415-.591 1.08-2.513 1.356-3.238 1.425l.093-.802c1.648-.737 2.91-3.085 2.91-3.085l3.257-5.71 1.121 1.02 1.053.877z" opacity=".1"/>
        <path fill="#DCE7FF" fill-rule="nonzero" d="M175.189 60.324c-1.348.92-2.478 1.698-2.699 1.861-.604.446-1.755 3.073-2.497 4.414-.591 1.079-2.513 1.356-3.238 1.425l.093-.802c1.648-.737 2.91-3.085 2.91-3.085l3.257-5.71 1.121 1.016s.421.347 1.053.88z"/>
        <path fill="#FFB0B1" fill-rule="nonzero" d="M172.595 55.852c.001 1.054-.318 2.083-.916 2.95-1.457 2.12-4.245 2.857-6.56 1.734-2.315-1.123-3.462-3.769-2.699-6.226.763-2.457 3.207-3.988 5.75-3.602 2.545.385 4.425 2.572 4.425 5.144z"/>
        <path fill="#000" fill-rule="nonzero" d="M181.678 73.356c-.713-.438-1.293-1.062-1.68-1.804-.292-.579-.487-1.247-.987-1.658-.451-.368-1.053-.458-1.615-.623-1.846-.546-3.393-2.23-3.451-4.153-.028-.906.254-1.81.126-2.706-.073-.508-.275-.988-.586-1.395-.155-.195-.324-.378-.507-.546-.246-.232-.504-.456-.728-.702-.142-.152-.266-.32-.369-.5-.083-.147-.151-.303-.202-.465-.35-1.074-.031-2.348-.417-3.434l-.021-.06c-.146-.386-.443-.772-.855-.802-.412-.03-.765.313-1.158.465-.823.32-1.711-.224-2.397-.779-.686-.554-1.46-1.188-2.332-1.065-.578.083-1.034.476-1.565.68-.12.046-.244.081-.37.106.927-2.314 3.367-3.645 5.816-3.172 2.448.473 4.217 2.617 4.215 5.111 0 .365-.037.73-.114 1.086l.028.072c.204.527.434 1.067.636 1.534l.991.898 1.053.878c1.374 1.158 3.748 3.197 4.973 4.445 1.077 1.102 1.414 5.373 1.516 8.59z" opacity=".1"/>
        <path fill="#591D4B" fill-rule="nonzero" d="M162.872 50.602c.251-.51.376-1.083.676-1.567.44-.702 1.209-1.15 1.998-1.423 2.062-.71 6.42-1.742 7.721 0 .257.351.469.74.823.983.27.184.597.263.894.402.83.39 1.36 1.238 1.642 2.105.282.867.367 1.797.574 2.69.265 1.146.73 2.232 1.193 3.312.546 1.274 1.125 2.595 2.178 3.495 1.437 1.228 1.754 2.967 3.088 4.315 1.58 1.6 1.528 4.241.714 6.338-.107.276-.228.564-.186.857.042.293.26.56.465.793l.864.974c-2.043.493-4.354-.574-5.305-2.446-.293-.58-.488-1.246-.99-1.659-.449-.368-1.053-.456-1.612-.62-1.846-.548-3.394-2.235-3.452-4.158-.028-.904.254-1.807.126-2.702-.07-.511-.273-.995-.587-1.404-.483-.63-1.211-1.053-1.604-1.755-.665-1.174-.16-2.699-.64-3.959-.146-.386-.441-.772-.854-.802-.412-.03-.765.313-1.16.465-.82.32-1.709-.222-2.395-.779-.686-.556-1.46-1.188-2.334-1.063-.577.08-1.031.474-1.563.679-.393.15-1.19.286-1.534-.046-.726-.668.957-2.4 1.26-3.025z"/>
        <path fill="#000" fill-rule="nonzero" d="M180.699 70.85c-.295-.579-.488-1.245-.99-1.656-.45-.369-1.053-.458-1.614-.623-1.845-.546-3.392-2.232-3.452-4.155-.028-.904.255-1.81.128-2.704-.073-.508-.276-.988-.588-1.395-.484-.63-1.212-1.053-1.604-1.755-.665-1.172-.16-2.697-.64-3.959-.146-.384-.442-.77-.853-.802-.41-.031-.767.314-1.16.467-.821.32-1.71-.225-2.395-.78-.684-.554-1.462-1.187-2.334-1.064-.577.082-1.033.475-1.563.679-.393.15-1.192.288-1.536-.044-.723-.702.96-2.43 1.262-3.052.25-.512.375-1.082.677-1.567l.051-.079c-.226.187-.42.409-.577.657-.3.484-.425 1.052-.676 1.567-.303.62-1.986 2.355-1.261 3.051.35.334 1.14.197 1.533.046.527-.206.986-.599 1.564-.68.877-.124 1.65.51 2.334 1.064.684.555 1.579 1.099 2.397.78.393-.153.737-.497 1.158-.466.42.032.702.416.854.802.48 1.26-.026 2.785.64 3.959.392.69 1.12 1.121 1.603 1.755.314.409.516.893.588 1.403.128.895-.155 1.8-.127 2.703.058 1.93 1.606 3.61 3.452 4.157.556.165 1.163.253 1.613.621.503.412.702 1.08.99 1.658.95 1.873 3.261 2.94 5.304 2.446l-.407-.46c-1.77.027-3.562-.98-4.371-2.574z" opacity=".1"/>
        <path fill="#000" fill-rule="nonzero" d="M168.601 62.842c-.23.35-.887 2.148-1.437 3.716-.514-.2-.98-1.475-.98-1.475l2.74-3.9c.281.386.097 1.027-.323 1.659z" opacity=".1"/>
        <path fill="#DCE7FF" fill-rule="nonzero" d="M168.707 62.736c-.23.351-.888 2.148-1.437 3.717-.515-.198-.981-1.476-.981-1.476l2.74-3.897c.281.384.097 1.026-.322 1.656z"/>
        <path fill="#BE8B87" fill-rule="nonzero" d="M152.77 80.663l-1.52-4.792c-.036-.114-.026-.237.029-.342.055-.106.15-.186.263-.221.235-.074.486.056.561.29l1.52 4.788-.151 1.002-.702-.725z"/>
        <path fill="#FFF" fill-rule="nonzero" d="M151.394 75.45c.236-.075.488.055.563.291l1.52 4.787-.114.751.11.116.151-1.002-1.528-4.787c-.075-.235-.326-.365-.561-.291-.096.03-.178.092-.234.175.03-.016.061-.03.093-.04z" opacity=".1"/>
        <path fill="#EFC8C4" fill-rule="nonzero" d="M152.77 80.663L153.623 80.393 153.498 81.214 153.472 81.395 153.223 81.135z"/>
        <path fill="#727A9C" fill-rule="nonzero" d="M153.223 81.135c.014-.019.033-.034.054-.046.025-.015.057-.015.083 0 .011.015.021.03.03.048.023.04.063.066.108.072l-.026.175-.25-.249z"/>
        <path fill="#FFB0B1" fill-rule="nonzero" d="M151.242 77.573s3.048-.018 2.33 1.28c-.718 1.296-1.84 1.452-1.84 1.452l-.49-2.732z"/>
        <path fill="#F46036" fill-rule="nonzero" d="M132.285 19.376h-.132c-5.236 0-9.867 2.77-12.53 6.86-2.664-4.09-7.295-6.86-12.531-6.86h-.132c-8.179.078-14.769 6.728-14.773 14.907 0 4.88 2.137 11.804 6.305 17.502 7.94 10.857 21.13 20.355 21.13 20.355s13.191-9.497 21.13-20.355c4.169-5.698 6.304-12.622 6.304-17.502-.004-8.178-6.593-14.828-14.771-14.907zm-1.883 33.244c-1.22-.004-2.313-.759-2.75-1.898h-3.13c-.423-.003-.797-.274-.932-.674l-.962-2.897-3.042 10.632c-.122.42-.507.71-.945.71h-.06c-.46-.022-.84-.361-.913-.814l-3.136-18.86-2.292 11.16c-.108.437-.5.743-.95.743h-4.409c-.36.015-.7-.169-.884-.478-.184-.31-.184-.695 0-1.005.185-.31.524-.493.884-.478h3.638l3.246-15.005c.11-.457.528-.773.998-.753.47.02.86.37.932.834l3.203 19.24 2.727-9.513c.116-.412.49-.697.917-.702h.02c.423 0 .798.272.93.674l1.739 5.23h2.383c.47-1.428 1.942-2.271 3.412-1.955 1.47.316 2.465 1.69 2.306 3.186-.16 1.496-1.421 2.63-2.925 2.63l-.005-.007z"/>
    </g>
</svg>
