<svg xmlns="http://www.w3.org/2000/svg" data-name="Layer 1" viewBox="0 0 24 30" x="0px" y="0px"><title>rounded</title><path d="M8,15l-.29291.29291a.97924.97924,0,0,1-.69989.29486A.99927.99927,0,0,1,6,14.58575V13a2,2,0,0,1-2-2V6A2,2,0,0,1,6,4h7a2,2,0,0,1,2,2v5a2,2,0,0,1-2,2H10L9,14ZM18,8H16.5v3A3.504,3.504,0,0,1,13,14.5H10.62134L9.22247,15.89886A1.9929,1.9929,0,0,0,11,17h3l2.29291,2.29291a.97924.97924,0,0,0,.69989.29486A.99927.99927,0,0,0,18,18.58575V17a2,2,0,0,0,2-2V10A2,2,0,0,0,18,8Z"/><text x="0" y="39" fill="#000000" font-size="5px" font-weight="bold" font-family="'Helvetica Neue', Helvetica, Arial-Unicode, Arial, Sans-serif">Created by Sophia Bai</text><text x="0" y="44" fill="#000000" font-size="5px" font-weight="bold" font-family="'Helvetica Neue', Helvetica, Arial-Unicode, Arial, Sans-serif">from the Noun Project</text></svg>