<svg xmlns="http://www.w3.org/2000/svg" xmlns:xlink="http://www.w3.org/1999/xlink" version="1.1" x="0px" y="0px" viewBox="0 0 32 40" style="enable-background:new 0 0 32 32;" xml:space="preserve"><g><g><path d="M31.9,7.6c0,0,0-0.1-0.1-0.1c0-0.1-0.1-0.1-0.1-0.2l-6-7c0,0,0,0,0,0c-0.1-0.1-0.1-0.1-0.2-0.2c0,0-0.1,0-0.1-0.1    C25.3,0,25.1,0,25,0H13c-0.6,0-1,0.4-1,1s0.4,1,1,1h11v6c0,0.6,0.4,1,1,1h5v17h-7c-0.6,0-1,0.4-1,1s0.4,1,1,1h8c0.6,0,1-0.4,1-1V8    C32,7.9,32,7.7,31.9,7.6z M26,3.7L28.8,7H26V3.7z"/><path d="M19.9,11.5c0-0.1-0.1-0.1-0.1-0.2l-6-7c0,0,0,0,0,0c-0.1-0.1-0.1-0.1-0.2-0.2c0,0-0.1,0-0.1-0.1C13.3,4,13.1,4,13,4H1    C0.4,4,0,4.4,0,5v26c0,0.6,0.4,1,1,1h18c0.6,0,1-0.4,1-1V12c0-0.1,0-0.3-0.1-0.4C19.9,11.6,19.9,11.6,19.9,11.5z M14,7.7l2.8,3.3    H14V7.7z M2,30V6h10v6c0,0.6,0.4,1,1,1h5v17H2z"/></g></g><text x="0" y="47" fill="#000000" font-size="5px" font-weight="bold" font-family="'Helvetica Neue', Helvetica, Arial-Unicode, Arial, Sans-serif">Created by ibnu nasikin hasanah</text><text x="0" y="52" fill="#000000" font-size="5px" font-weight="bold" font-family="'Helvetica Neue', Helvetica, Arial-Unicode, Arial, Sans-serif">from the Noun Project</text></svg>