<svg xmlns="http://www.w3.org/2000/svg" width="128" height="105" viewBox="0 0 128 105">
    <g fill="none">
        <path fill="#2F2E41" d="M114.33 16.055l-11.57.112c-.545-2.677-2.372-9.703-.726-11.62.155-1.498 1.463-2.608 2.967-2.52 1.793-2.807 4.78-2.385 6.8-.632 2.031.701 2.797 1.947 2.53 3.637 1.504 1.317 1.782 2.92 1.106 4.744l-1.106 6.279z"/>
        <path fill="#FFB9B9" d="M113.217 23.183l-8.349-1.156-1.67-2.44c2.3-1.526 3.114-3.657 2.055-6.55l5.78-.13c-.27 2.578.581 4.573 2.954 5.78l-.77 4.496z"/>
        <path fill="#E6E6E6" d="M102.894 98.483l-.319 4.364c-.029.4.116.792.397 1.078.282.285.673.434 1.073.41l2.241-.136c.21-.012.404-.118.529-.288.124-.17.167-.386.116-.59l-1.244-4.978-2.793.14zM110.151 98.343l-1.244 4.977c-.051.205-.009.421.116.591.125.17.318.276.529.288l2.241.136c.4.024.791-.125 1.073-.41.281-.286.426-.678.397-1.078l-.32-4.364-2.792-.14z"/>
        <path fill="#F46036" d="M113.088 99.089L110.063 98.785 107.052 66.594 105.914 98.682 102.942 98.575 97.933 54.136 117.07 54.136z"/>
        <circle cx="108.464" cy="9.312" r="5.78" fill="#FFB9B9"/>
        <path fill="#F46036" d="M119.895 55.164l-23.375.256c3.469-13.206 5.544-25.473 1.926-33.907l5.78-2.825c2.787 2.906 5.89 2.607 9.247-.257l5.523 1.412c-.946 11.06-.522 22.904.9 35.32z"/>
        <path fill="#FFB9B9" d="M90.098 41.55l14.513 5.779 3.245.954c.293.087.61.05.874-.102.266-.152.458-.406.532-.702.133-.532-.137-1.081-.64-1.301l-3.368-1.033-10.147-5.908 2.12-5.587-4.432-2.376-2.697 10.275z"/>
        <path fill="#F46036" d="M90.226 31.017c2.762 1.078 4.958 2.916 6.68 5.395l5.393-7.835-3.853-7.064-8.22 9.504z"/>
        <path fill="#2F2E41" d="M114.978 8.375c-2.345-.604-4.652-.687-6.894.08-1.428.69-3.143.627-5.05.057V2.746l10.297.274 1.647 5.355z"/>
        <path fill="#3F3D56" d="M104.563 34.815c-.945.001-1.71.767-1.712 1.712l.676 14.144c.001.945.767 1.71 1.712 1.712h7.725c.945-.001 1.71-.767 1.712-1.712l.675-14.144c0-.945-.766-1.71-1.711-1.712h-9.077z"/>
        <path fill="#FFB9B9" d="M126.481 40.48l-12.65 5.038-.954.38c-.03.012-.061.022-.093.032l-3.198.941c-.409.12-.975-.43-1.306-.81-.338-.38-.35-.949-.027-1.34.045-.051.093-.098.146-.14.123-.097.268-.16.422-.186l3.194-.629c.115-.022.225-.063.326-.121l1.49-.869 7.735-4.503c.444-.258.636-.8.454-1.28l-1.476-3.894c-.187-.493.02-1.048.485-1.297l2.446-1.311c.283-.152.62-.166.915-.037.294.128.514.385.595.696l2.123 8.088c.135.513-.134 1.046-.627 1.243z"/>
        <path fill="#F46036" d="M127.216 29.605c-2.761 1.077-4.957 2.915-6.679 5.394l-5.394-7.835 3.853-7.32 8.22 9.76z"/>
        <path fill="#FFF" d="M112.31 14.456c-2.528 1.052-5.179 1.009-7.938 0 .803-1.37-.398-2.444-1.014-3.828l10.304-.306c-.788 1.202-1.95 2.622-1.351 4.134z"/>
        <path fill="#FFF" d="M113.553 10.551L113.433 10.431 113.602 10.262 114.611 9.085 114.74 9.194 113.726 10.377z"/>
        <path fill="#FFF" d="M103.02 9.662L103.189 9.662 103.189 10.982 103.02 10.982z" transform="rotate(-50.194 103.105 10.322)"/>
        <path fill="#FFF" d="M111.377 12.898L114.68 12.898 114.68 13.067 111.377 13.067z" transform="rotate(-57.52 113.028 12.983)"/>
        <path fill="#FFF" d="M103.569 11.331L103.738 11.331 103.738 14.634 103.569 14.634z" transform="rotate(-32.471 103.654 12.982)"/>
        <path fill="#FFF" d="M114.169 42.537v3.06l-1.065.425c-.034.013-.068.024-.104.036l-3.57 1.05c-.456.134-1.087-.48-1.457-.905-.378-.423-.39-1.058-.03-1.495.05-.057.103-.11.162-.157.138-.107.3-.178.471-.207l3.566-.702c.128-.025.25-.07.364-.135l1.663-.97z"/>
        <path fill="#3F3D56" d="M115.713 31.622h-.61c0-8.634-1.778-14.65-3.51-14.65l-.153-.61c1.553 0 2.544 2.503 3.101 4.604.756 2.848 1.172 6.632 1.172 10.656zM101.673 29.485h-.61c0-7.906 1.79-12.818 4.425-12.818l-.152.61c-1.823 0-3.663 3.775-3.663 12.208z"/>
        <circle cx="115.408" cy="31.775" r="1.526" fill="#3F3D56"/>
        <path fill="#3F3D56" d="M99.231 33.148h-.61c0-2.188 1.232-3.968 2.747-3.968v.61c-1.178 0-2.137 1.507-2.137 3.358zM104.115 33.148h-.61c0-1.851-.96-3.357-2.137-3.357v-.61c1.515 0 2.747 1.78 2.747 3.967z"/>
        <circle cx="103.81" cy="33.301" r="1" fill="#3F3D56"/>
        <circle cx="98.926" cy="33.301" r="1" fill="#3F3D56"/>
        <path fill="#2F2E41" d="M25.363 12.787l-10.72 1.815c-.549.094-1.08-.243-1.228-.779-.775-2.795-2.394-6.442-.822-8.273.166-1.6 1.562-2.786 3.168-2.691C17.676-.14 20.866.31 23.022 2.183c2.17.749 2.988 2.079 2.702 3.884.937.82 1.429 1.745 1.532 2.76.1 1.141-.297 2.27-1.09 3.099l-.803.86z"/>
        <path fill="#9F616A" d="M23.697 21.227l-8.311-.49c.814-1.869 1.14-3.669.814-5.377h6.193c-.014 1.312.638 3.58 1.304 5.867z"/>
        <path fill="#E6E6E6" d="M13.693 98.022l-.341 4.66c-.032.427.123.846.424 1.15.3.305.718.465 1.145.439l2.394-.145c.224-.014.43-.127.564-.308.133-.181.178-.413.124-.63l-1.329-5.315-2.981.149zM21.442 97.873l-1.329 5.314c-.055.218-.01.45.124.631.133.181.34.294.564.308l2.394.145c.427.026.844-.134 1.145-.438.3-.305.455-.724.424-1.151l-.34-4.66-2.982-.15z"/>
        <path fill="#F46036" d="M24.578 98.669L21.348 98.345 18.132 63.97 16.916 98.234 13.743 98.12 8.394 50.666 28.829 50.666z"/>
        <circle cx="19.46" cy="11.167" r="6.172" fill="#9F616A"/>
        <path fill="#2F2E41" d="M26.416 8.218c-2.505-.436-4.968-.496-7.362.058-1.525.499-3.356.453-5.393.042V4.156l10.996.198 1.759 3.864z"/>
        <path fill="#FFF" d="M23.567 16.119c-2.7 1.123-5.53 1.077-8.477 0 .857-1.464-.425-2.61-1.083-4.088l11.003-.327c-.841 1.284-2.083 2.8-1.443 4.415z"/>
        <path fill="#FFF" d="M13.652 11L13.821 11 13.821 12.409 13.652 12.409z" transform="rotate(-50.195 13.737 11.704)"/>
        <path fill="#FFF" d="M22.57 14.461L26.098 14.461 26.098 14.63 22.57 14.63z" transform="rotate(-57.52 24.334 14.545)"/>
        <path fill="#FFF" d="M14.238 12.782L14.407 12.782 14.407 16.309 14.238 16.309z" transform="rotate(-32.471 14.323 14.545)"/>
        <path fill="#F46036" d="M7.727 39.315L3 36.382l4.03-11.804c.45-1.218 1.31-2.24 2.434-2.891l1.358-.786.118 11.908-3.214 6.506z"/>
        <path fill="#F46036" d="M28.154 45.048l-.7-5.989c-.037-3.16.5-6.217 1.783-9.032l.652-8.8-7.17-2.933c-.022.146-.04.292-.062.438l-3.36 1.68-3.278-.745.018-1.048-6.518 2.934c2.156 10.021.98 20.428-2.727 32.72l8.587 2.349.072-4.123 7.653-.547c.079 1.338.142 2.652.179 3.937 4.318 1.59 4.467 1.563 8.401-.713-1.567-3.295-2.807-6.723-3.53-10.128z"/>
        <path fill="#F46036" d="M39.178 37.848L34.778 36.382 27.74 28.189 29.889 21.227 39.666 34.915z"/>
        <path fill="#E6E6E6" d="M25.388 44.191c.15.658.804 1.07 1.462.923l3.735-.846-.54-2.384-3.734.845c-.659.15-1.072.804-.923 1.462z"/>
        <path fill="#F46036" d="M28.748 41.434l2.119 3.91c3.563-.993 6.651-4.126 9.614-7.821l-.815-2.608-5.051 1.304-5.867 5.215z"/>
        <path fill="#E6E6E6" d="M1.127 29.166L5.194 29.892 14.489 43.109 9.551 41.947z"/>
        <path fill="#3F3D56" d="M.405 29.004c-.126.002-.241.072-.3.184-.06.111-.053.246.017.352L8.81 42.723c.048.074.123.126.209.146l4.043.952c.14.032.285-.024.365-.143.08-.119.079-.275-.004-.392L3.884 29.72c-.052-.075-.132-.125-.222-.141l-3.191-.57c-.022-.004-.044-.006-.066-.006z"/>
        <path fill="#E6E6E6" d="M5.826 38.43l.241 2.432 3.81-.378c.673-.067 1.163-.665 1.096-1.337-.066-.671-.665-1.162-1.337-1.095l-3.81.378z"/>
        <path fill="#F46036" d="M2.512 38.148c.011 1.727 1.413 3.12 3.14 3.123h.626l.456-3.802-3.777-1.36-.445 2.04z"/>
        <path fill="#FFF" d="M24.709 12.125L24.59 12.006 24.77 11.825 25.848 10.567 25.976 10.677 24.894 11.94z"/>
        <path fill="#E6E6E6" d="M46.264 103.903h35.472V60.877c0-2.279-2.244-4.132-5.002-4.132H51.266c-2.758 0-5.002 1.853-5.002 4.132v43.026z"/>
        <path fill="#FFF" d="M48.966 102.124h30.068v-36.47c0-1.931-1.902-3.502-4.24-3.502H53.206c-2.338 0-4.24 1.57-4.24 3.502v36.47z"/>
        <path fill="#3F3D56" d="M45.996 53.396c-.877 0-1.59.59-1.59 1.314v3.79c0 .725.713 1.314 1.59 1.314h36.009c.876 0 1.59-.589 1.59-1.313V54.71c0-.724-.714-1.314-1.59-1.314h-36.01zM53.389 97.447c-.857.003-1.551.697-1.554 1.554.003.857.697 1.55 1.554 1.553h2.907v-3.107H53.39z"/>
        <path fill="#F46036" d="M58.965 97.447h-2.828v3.107h2.828c.857-.002 1.551-.696 1.554-1.553-.003-.857-.697-1.551-1.554-1.554z"/>
        <path fill="#000" d="M59.979 97.828c.245.28.38.64.38 1.014-.002.856-.696 1.55-1.553 1.553h-2.669v.16h2.828c.857-.003 1.551-.697 1.554-1.554-.001-.451-.198-.88-.54-1.173z" opacity=".2"/>
        <path fill="#3F3D56" d="M66.51 74.048c-.59-.622-1.57-.651-2.196-.065-.621.59-.65 1.57-.064 2.196l1.994 2.116 2.26-2.131-1.994-2.116z"/>
        <path fill="#F46036" d="M70.336 78.106l-1.94-2.058-2.261 2.13 1.94 2.059c.59.622 1.57.65 2.196.065.622-.59.65-1.571.065-2.196z"/>
        <path fill="#000" d="M70.754 79.104c-.036.371-.206.717-.477.972-.625.586-1.606.557-2.196-.064l-1.83-1.942-.116.109 1.94 2.058c.59.622 1.57.65 2.196.065.327-.31.504-.747.483-1.198z" opacity=".2"/>
        <path fill="#3F3D56" d="M58.233 78.946c-.59-.621-1.57-.65-2.196-.064-.621.59-.65 1.57-.064 2.196l1.994 2.115 2.26-2.13-1.994-2.117z"/>
        <path fill="#F46036" d="M62.059 83.004l-1.94-2.058-2.261 2.132 1.94 2.057c.59.622 1.57.651 2.196.065.622-.59.65-1.57.065-2.196z"/>
        <path fill="#000" d="M62.477 84.003c-.036.37-.206.716-.477.972-.625.586-1.606.557-2.196-.065l-1.83-1.942-.116.11 1.94 2.057c.59.622 1.57.651 2.196.065.327-.31.504-.747.483-1.197z" opacity=".2"/>
        <path fill="#3F3D56" d="M66.51 83.507c-.59-.622-1.57-.65-2.196-.065-.621.59-.65 1.571-.064 2.196l1.994 2.116 2.26-2.13-1.994-2.117z"/>
        <path fill="#F46036" d="M70.336 87.565l-1.94-2.058-2.261 2.131 1.94 2.058c.59.622 1.57.651 2.196.065.622-.59.65-1.57.065-2.196z"/>
        <path fill="#000" d="M70.754 88.564c-.036.37-.206.716-.477.972-.625.586-1.606.557-2.196-.065l-1.83-1.942-.116.11 1.94 2.057c.59.622 1.57.651 2.196.065.327-.31.504-.747.483-1.197z" opacity=".2"/>
        <path fill="#3F3D56" d="M71.56 93.214c.614-.597.631-1.578.038-2.196-.597-.615-1.579-.632-2.197-.038L67.31 93l2.158 2.235 2.092-2.02z"/>
        <path fill="#F46036" d="M67.549 97.089l2.034-1.965-2.159-2.235-2.034 1.965c-.614.597-.632 1.578-.038 2.197.597.614 1.579.631 2.197.038z"/>
        <path fill="#000" d="M66.555 97.52c-.371-.033-.718-.198-.978-.466-.593-.618-.576-1.6.038-2.196l1.92-1.854-.11-.115-2.035 1.965c-.614.597-.632 1.578-.038 2.197.314.323.753.494 1.203.468z" opacity=".2"/>
        <path fill="#3F3D56" d="M60.411 88.316c.615-.597.632-1.579.038-2.197-.597-.614-1.578-.631-2.196-.038l-2.092 2.02 2.159 2.235 2.091-2.02z"/>
        <path fill="#F46036" d="M56.4 92.19l2.034-1.965-2.158-2.235-2.034 1.965c-.615.597-.632 1.579-.039 2.197.597.615 1.579.632 2.197.038z"/>
        <path fill="#000" d="M55.407 92.62c-.372-.031-.72-.196-.978-.464-.594-.618-.577-1.6.038-2.197l1.92-1.854-.111-.115-2.034 1.965c-.615.597-.632 1.579-.039 2.197.314.324.753.495 1.204.469z" opacity=".2"/>
        <path fill="#3F3D56" d="M76.29 82.404c.614-.597.631-1.579.038-2.197-.597-.615-1.579-.632-2.197-.038l-2.091 2.02 2.158 2.235 2.092-2.02z"/>
        <path fill="#F46036" d="M72.278 86.278l2.035-1.965-2.159-2.235-2.034 1.965c-.615.597-.632 1.579-.038 2.197.597.614 1.578.631 2.196.038z"/>
        <path fill="#000" d="M71.285 86.708c-.371-.031-.719-.197-.978-.464-.593-.618-.576-1.6.038-2.197l1.92-1.854-.11-.115-2.035 1.965c-.615.597-.632 1.579-.038 2.197.314.324.753.495 1.203.468z" opacity=".2"/>
        <path fill="#3F3D56" d="M72.76 94.656c-.59-.622-1.57-.651-2.196-.065-.621.59-.65 1.57-.064 2.196l1.994 2.116 2.26-2.131-1.994-2.116z"/>
        <path fill="#F46036" d="M76.586 98.714l-1.94-2.058-2.261 2.131 1.94 2.058c.59.622 1.57.65 2.196.065.622-.59.65-1.571.065-2.196z"/>
        <path fill="#000" d="M77.004 99.712c-.036.371-.206.717-.477.973-.625.586-1.606.557-2.196-.065l-1.83-1.942-.116.109 1.94 2.058c.59.622 1.57.65 2.196.065.327-.31.504-.747.483-1.198z" opacity=".2"/>
        <path fill="#3F3D56" d="M61.78 94.487c-.589-.622-1.57-.65-2.195-.065-.622.59-.651 1.57-.065 2.196l1.994 2.116 2.261-2.131-1.994-2.116z"/>
        <path fill="#F46036" d="M65.606 98.545l-1.94-2.058-2.26 2.131 1.939 2.058c.59.622 1.57.65 2.196.065.622-.59.65-1.57.065-2.196z"/>
        <path fill="#000" d="M66.024 99.543c-.036.371-.205.717-.476.973-.626.586-1.607.557-2.196-.065l-1.831-1.942-.116.11 1.94 2.057c.59.622 1.57.65 2.196.065.328-.31.504-.747.483-1.198z" opacity=".2"/>
        <path fill="#F46036" d="M64.871 88.914c0 1.065-.749 1.982-1.792 2.195-.296.06-.6.06-.896 0-1.043-.213-1.793-1.13-1.793-2.195s.75-1.983 1.793-2.196c.296-.06.6-.06.896 0 1.043.213 1.792 1.13 1.792 2.196z"/>
        <path fill="#000" d="M63.079 86.718v4.391c-.296.06-.6.06-.896 0v-4.39c.296-.06.6-.06.896 0z" opacity=".2"/>
        <path fill="#F46036" d="M65.885 79.961c0 1.065-.75 1.983-1.793 2.196-.295.06-.6.06-.896 0-1.043-.214-1.792-1.131-1.792-2.196 0-1.065.75-1.982 1.792-2.196.296-.06.6-.06.896 0 1.044.213 1.793 1.131 1.793 2.196z"/>
        <path fill="#000" d="M64.092 77.765v4.392c-.295.06-.6.06-.896 0v-4.392c.296-.06.6-.06.896 0z" opacity=".2"/>
        <path fill="#F46036" d="M65.885 92.799c0 1.065-.75 1.982-1.793 2.195-.295.06-.6.06-.896 0-1.043-.213-1.792-1.13-1.792-2.195s.75-1.983 1.792-2.196c.296-.06.6-.06.896 0 1.044.213 1.793 1.131 1.793 2.196z"/>
        <path fill="#000" d="M64.092 90.603v4.391c-.295.06-.6.06-.896 0v-4.39c.296-.06.6-.06.896 0z" opacity=".2"/>
        <path fill="#F46036" d="M71.46 99.049c0 1.065-.75 1.982-1.793 2.195-.296.06-.6.06-.896 0-1.044-.213-1.793-1.13-1.793-2.195s.75-1.983 1.793-2.196c.295-.06.6-.06.896 0 1.043.213 1.792 1.131 1.792 2.196z"/>
        <path fill="#000" d="M69.667 96.853v4.391c-.296.06-.6.06-.896 0v-4.39c.295-.06.6-.06.896 0z" opacity=".2"/>
        <path fill="#F46036" d="M76.383 87.55c.767.738.908 1.915.337 2.814-.162.254-.373.473-.622.645-.877.603-2.058.506-2.824-.233-.767-.74-.908-1.915-.337-2.814.162-.255.373-.474.622-.646.877-.603 2.058-.506 2.824.234z"/>
        <path fill="#000" d="M73.559 87.316l3.161 3.048c-.162.254-.373.473-.622.645l-3.161-3.047c.162-.255.373-.474.622-.646z" opacity=".2"/>
        <path fill="#F46036" d="M77.059 92.448c.767.739.908 1.915.337 2.814-.162.255-.374.474-.622.646-.877.603-2.058.505-2.825-.234-.766-.738-.907-1.915-.337-2.814.163-.254.374-.474.622-.645.878-.603 2.059-.506 2.825.233z"/>
        <path fill="#000" d="M74.234 92.215l3.162 3.047c-.162.255-.374.474-.622.646l-3.162-3.048c.163-.254.374-.474.622-.645z" opacity=".2"/>
        <path fill="#F46036" d="M56.958 93.63c.766.74.907 1.916.337 2.815-.163.254-.374.474-.622.645-.878.603-2.058.506-2.825-.233-.766-.74-.907-1.915-.337-2.814.162-.255.374-.474.622-.646.877-.603 2.058-.505 2.825.234z"/>
        <path fill="#000" d="M54.133 93.397l3.162 3.048c-.163.254-.374.474-.622.645l-3.162-3.047c.162-.255.374-.474.622-.646zM48.882 53.396H49.882V59.646H48.882zM53.78 53.396H54.78V59.646H53.78zM58.679 53.396H59.679V59.646H58.679zM63.578 53.396H64.578V59.646H63.578zM68.476 53.396H69.476V59.646H68.476zM73.375 53.396H74.375V59.646H73.375zM78.274 53.396H79.274V59.646H78.274z" opacity=".2"/>
    </g>
</svg>
