<svg xmlns="http://www.w3.org/2000/svg" xmlns:xlink="http://www.w3.org/1999/xlink" version="1.1" x="0px" y="0px" viewBox="0 0 32 40" style="enable-background:new 0 0 32 32;" xml:space="preserve"><g><path d="M31.7,16.3l-15-16c-0.4-0.4-1.1-0.4-1.5,0l-15,16c-0.4,0.4-0.4,1,0,1.4c0.4,0.4,1,0.4,1.4,0L4,15.3V31c0,0.6,0.4,1,1,1h8   c0.6,0,1-0.4,1-1v-8h4v8c0,0.6,0.4,1,1,1h8c0.6,0,1-0.4,1-1V15.3l2.3,2.4c0.2,0.2,0.5,0.3,0.7,0.3c0.2,0,0.5-0.1,0.7-0.3   C32.1,17.4,32.1,16.7,31.7,16.3z M26,30h-6v-8c0-0.6-0.4-1-1-1h-6c-0.6,0-1,0.4-1,1v8H6V13.1L16,2.5l10,10.7V30z"/></g><text x="0" y="47" fill="#000000" font-size="5px" font-weight="bold" font-family="'Helvetica Neue', Helvetica, Arial-Unicode, Arial, Sans-serif">Created by ibnu nasikin hasanah</text><text x="0" y="52" fill="#000000" font-size="5px" font-weight="bold" font-family="'Helvetica Neue', Helvetica, Arial-Unicode, Arial, Sans-serif">from the Noun Project</text></svg>