<svg xmlns="http://www.w3.org/2000/svg" xmlns:xlink="http://www.w3.org/1999/xlink" version="1.1" x="0px" y="0px" viewBox="0 0 32 40" style="enable-background:new 0 0 32 32;" xml:space="preserve"><g><g><path d="M31,3h-6V1c0-0.6-0.4-1-1-1s-1,0.4-1,1v2h-6V1c0-0.6-0.4-1-1-1s-1,0.4-1,1v2H9V1c0-0.6-0.4-1-1-1S7,0.4,7,1v2H1    C0.4,3,0,3.4,0,4v27c0,0.6,0.4,1,1,1h30c0.6,0,1-0.4,1-1V4C32,3.4,31.6,3,31,3z M30,30H2V5h5v2c0,0.6,0.4,1,1,1s1-0.4,1-1V5h6v2    c0,0.6,0.4,1,1,1s1-0.4,1-1V5h6v2c0,0.6,0.4,1,1,1s1-0.4,1-1V5h5V30z"/><path d="M9,24H5c-0.6,0-1,0.4-1,1s0.4,1,1,1h4c0.6,0,1-0.4,1-1S9.6,24,9,24z"/><path d="M18,24h-4c-0.6,0-1,0.4-1,1s0.4,1,1,1h4c0.6,0,1-0.4,1-1S18.6,24,18,24z"/><path d="M9,18H5c-0.6,0-1,0.4-1,1s0.4,1,1,1h4c0.6,0,1-0.4,1-1S9.6,18,9,18z"/><path d="M18,18h-4c-0.6,0-1,0.4-1,1s0.4,1,1,1h4c0.6,0,1-0.4,1-1S18.6,18,18,18z"/><path d="M27,18h-4c-0.6,0-1,0.4-1,1s0.4,1,1,1h4c0.6,0,1-0.4,1-1S27.6,18,27,18z"/><path d="M9,12H5c-0.6,0-1,0.4-1,1s0.4,1,1,1h4c0.6,0,1-0.4,1-1S9.6,12,9,12z"/><path d="M18,12h-4c-0.6,0-1,0.4-1,1s0.4,1,1,1h4c0.6,0,1-0.4,1-1S18.6,12,18,12z"/><path d="M23,12c-0.6,0-1,0.4-1,1s0.4,1,1,1h4c0.6,0,1-0.4,1-1s-0.4-1-1-1H23z"/></g></g><text x="0" y="47" fill="#000000" font-size="5px" font-weight="bold" font-family="'Helvetica Neue', Helvetica, Arial-Unicode, Arial, Sans-serif">Created by ibnu nasikin hasanah</text><text x="0" y="52" fill="#000000" font-size="5px" font-weight="bold" font-family="'Helvetica Neue', Helvetica, Arial-Unicode, Arial, Sans-serif">from the Noun Project</text></svg>